PathFileType	4	(X/Y/Z)	AB09\squats_1.trc
DataRate	CameraRate	NumFrames	NumMarkers	Units	OrigDataRate	OrigDataStartFrame	OrigNumFrames
200.000000	200.000000	4	35	mm	200.000000	207	332
Frame#	Time	C7			LSHO			STRN			LASI			RASI			LPSI			RPSI			LGTR			RGTR			LTHC			LTHL			LTHR			LKNE			LMKNE			LSHC			LSHL			LSHR			LANK			LMANK			LMT1			LMT5			LCAL			RTHC			RTHL			RTHR			RKNE			RMKNE			RSHC			RSHL			RSHR			RANK			RMANK			RMT1			RMT5			RCAL			
		X1	Y1	Z1	X2	Y2	Z2	X3	Y3	Z3	X4	Y4	Z4	X5	Y5	Z5	X6	Y6	Z6	X7	Y7	Z7	X8	Y8	Z8	X9	Y9	Z9	X10	Y10	Z10	X11	Y11	Z11	X12	Y12	Z12	X13	Y13	Z13	X14	Y14	Z14	X15	Y15	Z15	X16	Y16	Z16	X17	Y17	Z17	X18	Y18	Z18	X19	Y19	Z19	X20	Y20	Z20	X21	Y21	Z21	X22	Y22	Z22	X23	Y23	Z23	X24	Y24	Z24	X25	Y25	Z25	X26	Y26	Z26	X27	Y27	Z27	X28	Y28	Z28	X29	Y29	Z29	X30	Y30	Z30	X31	Y31	Z31	X32	Y32	Z32	X33	Y33	Z33	X34	Y34	Z34	X35	Y35	Z35	

208	21.2	-3540.530963064944	968.7263575365523	2509.089588413477	-3604.823010041018	917.8126915962682	2666.124803151386	-3580.28069086351	665.1782474893979	2519.046185531049	-3302.207504065782	571.6230222345547	2651.024539094138	-3340.681066196354	558.8406741653479	2368.273480954389	-3123.662914733215	576.6847339815893	2550.886796154329	-3136.139508702359	573.7556622947991	2418.298035953846	-3208.071395557944	518.350289767679	2720.915690566927	-3251.861937219027	523.8939797808868	2277.162222069336	-3429.220758451442	523.0262742173082	2745.849899709048	-3506.15057510825	564.6475120893223	2651.078772961088	-3488.114093632942	377.2706155064963	2690.776847973729	-3615.761591256497	468.1022283038868	2774.65117132078	-3640.459451304362	446.7512145204823	2633.605563363271	-3511.538245501077	395.3122115985735	2757.778741327512	-3643.069306503695	322.0123278593574	2714.676423736958	-3555.437604854682	265.9133050102657	2765.841495775625	-3440.572276485538	104.9236075417415	2735.021592992162	-3486.017069710672	113.4590784564908	2644.11166447259	-3586.839187182324	79.57615053514189	2687.921972711674	-3532.502067244805	56.24424758716921	2786.023808564493	-3362.082543217907	69.51908793398117	2667.878839048849	-3485.773338262394	371.5498355126389	2305.958931760017	-3467.91640986775	497.2586180651604	2244.890929219391	-3499.845623408545	567.1442116560837	2328.406409041333	-3611.505715086345	447.5145854116068	2232.080794139735	-3637.696079605092	444.2609759100708	2387.373476980596	-3548.645722124003	274.7172742872966	2234.572835196323	-3517.563063535489	379.1673386031158	2256.899131645477	-3646.493732987928	317.3256150609985	2323.461880684333	-3442.417874792202	106.1085211450891	2286.228783877134	-3488.469490574177	110.2666935530786	2382.278061796925	-3603.342147114498	66.76168888642064	2323.740822063577	-3548.184253305831	67.62896190772992	2220.313516828165	-3379.935874444379	67.57434791412493	2363.932270625903	
209	21.205	-3540.293625598322	973.1161115527522	2508.977927162495	-3604.603079974064	922.2805865001247	2666.029275073903	-3580.467418410014	669.6409878675455	2518.936113608902	-3302.530933373304	575.2026424178287	2650.867567757154	-3340.913426764795	562.2103117203942	2368.170969695757	-3124.126368797363	581.5351661468084	2550.824345007517	-3136.520292791798	578.5466032734543	2418.23764859287	-3208.280624781899	522.3743755476747	2720.890459475952	-3252.07518789729	527.6964128818455	2276.987077550466	-3429.590109272335	525.0017797303107	2745.759815513819	-3506.903009613955	566.1120458852312	2651.097670202121	-3487.27662113767	378.6882206050107	2690.664940165205	-3615.713078477757	468.3602879935523	2774.413912214397	-3640.154244279461	446.9758476146093	2633.488166512427	-3511.478874419161	395.6124104470668	2757.431752928933	-3642.869018762407	322.1151329107068	2714.597423503798	-3555.247493311141	266.0509753746849	2765.784589641064	-3440.495073303835	104.9219089344629	2735.101057659859	-3485.933673947695	113.5171565755063	2644.215312738216	-3586.778703289945	79.67908351015355	2687.9883758494	-3532.470961054298	56.2234953896758	2786.073943408695	-3362.04431379244	69.50769654272675	2667.950344631362	-3484.886693595622	373.1944999638562	2305.921979139599	-3468.048807428922	499.0241621530239	2244.860141133389	-3500.621299905622	568.8151676810696	2328.185589117223	-3611.278767063063	447.8865587482269	2232.219544834859	-3637.25174506756	444.5006006785152	2387.147852506659	-3548.393537447651	274.8695653581174	2234.542022481368	-3517.336267276552	379.4252419907061	2256.934319283155	-3646.262724195401	317.439430257772	2323.365107413037	-3442.340556070317	106.0796933979518	2286.147693480382	-3488.451023835438	110.3384194349852	2382.167690131138	-3603.263985603954	66.82284441563735	2323.652805870047	-3548.133343424946	67.59215862283321	2220.228596794266	-3379.92169586038	67.58248128763263	2363.887793672168	
210	21.21	-3540.053927896332	977.6055423404503	2508.86336989135	-3604.383539126422	926.8454086203618	2665.92971344245	-3580.668528575278	674.2086217044354	2518.821284660422	-3302.872408369674	578.8540552600609	2650.712076189514	-3341.161918698039	565.6482911566389	2368.067611484666	-3124.618244178451	586.4719328327155	2550.76194760319	-3136.926177658596	583.4232669406192	2418.171345221476	-3208.510375296434	526.4726660737741	2720.860466953329	-3252.306453041395	531.5668755444547	2276.814477786101	-3429.973267890202	527.0144905015269	2745.669691817309	-3507.667421431889	567.6043530308976	2651.116175265453	-3486.413029047842	380.167628570021	2690.545682329476	-3615.653518037946	468.6259555525145	2774.16476513967	-3639.834138087811	447.2145181313789	2633.359743889936	-3511.40745177026	395.9181140790788	2757.083477903562	-3642.654482442347	322.2276751856419	2714.508795369933	-3555.049873565333	266.1945107099781	2765.722982710104	-3440.415070391235	104.9206719333551	2735.183876320337	-3485.846806246831	113.5757194059917	2644.319272613527	-3586.715368587977	79.78468537702449	2688.055494301618	-3532.442236219151	56.20556015548785	2786.125029608416	-3362.005501348004	69.49591230000152	2668.023089338947	-3483.978491121976	374.8885331776949	2305.871702160459	-3468.184393613551	500.831465795373	2244.824803928926	-3501.414749191337	570.517010994664	2327.9589524697	-3611.037177313396	448.2714049972309	2232.359686169222	-3636.79464298331	444.7598877863347	2386.924013543961	-3548.132408991369	275.0262090859716	2234.508926513531	-3517.098339452281	379.6826467598773	2256.965866235322	-3646.018656388218	317.5637563532528	2323.268456284561	-3442.261063895398	106.0503944046819	2286.063374938912	-3488.428404446436	110.4139173520376	2382.054135691313	-3603.17509681316	66.87988695929675	2323.564256369593	-3548.081403931062	67.55665414908925	2220.142430869566	-3379.906845255293	67.59133733663292	2363.840753424505	
211	21.215	-3539.811377504212	982.191997698177	2508.745777380376	-3604.164152668295	931.5044838160452	2665.826424782153	-3580.884257805112	678.8782378953726	2518.701189617744	-3303.231979843029	582.5749044811414	2650.558118725857	-3341.426353830307	569.1526311016777	2367.963645944786	-3125.138193411194	591.4907369372406	2550.699890931547	-3137.357238287653	588.3813919204564	2418.099455768704	-3208.760873829614	530.6418402646176	2720.825860091901	-3252.556487710012	535.5022483526595	2276.6448030392	-3430.369640693745	529.0627850245041	2745.57893726388	-3508.442526308873	569.1232402910075	2651.133328193125	-3485.52562364716	381.7071425519337	2690.415794290976	-3615.58265158634	468.8994839355543	2773.902535921874	-3639.497897637292	447.4673680438123	2633.218591485929	-3511.323378600013	396.2290078509664	2756.734038433468	-3642.425172074686	322.3503588122797	2714.408808834788	-3554.844906506724	266.3441892592252	2765.656180554902	-3440.3321645029	104.9200220610276	2735.26971256317	-3485.7563707904	113.6343469089834	2644.422899803134	-3586.649397173518	79.89255088167141	2688.122928279916	-3532.415914803334	56.19064084918661	2786.176427144959	-3361.966211775873	69.48366670055005	2668.096792923057	-3483.050769541047	376.6299063555234	2305.813162862947	-3468.323706277096	502.6788435332309	2244.786216635469	-3502.225121965185	572.2477991867695	2327.728061702673	-3610.780884524179	448.6692840477613	2232.503157256869	-3636.325875052292	445.0401106105428	2386.706269958317	-3547.862626510175	275.1875237490463	2234.474890280208	-3516.849105891067	379.939975557592	2256.995441728844	-3645.761228820519	317.6988411351086	2323.174070091888	-3442.179472292508	106.0207672619467	2285.97629969237	-3488.400994594658	110.4924833616936	2381.938368094417	-3603.075591027618	66.93259766398195	2323.475882939993	-3548.028591805519	67.52298277756822	2220.055714665001	-3379.891149321295	67.60068511457472	2363.791408678347	
